<svg width="146" height="60" viewBox="0 0 146 60" fill="none" xmlns="http://www.w3.org/2000/svg">
<path d="M126.179 26.0922C123.711 26.6579 117.193 26.9722 117.193 26.9722L116.392 29.5282C116.392 29.5282 119.619 29.2558 121.981 29.4863C121.981 29.4863 122.741 29.4234 122.825 30.3243C122.867 31.2462 122.762 32.2099 122.762 32.2099C122.762 32.2099 122.698 32.7756 121.918 32.9222C121.011 33.0689 114.894 33.3413 114.894 33.3413L113.903 36.6515C113.903 36.6515 113.544 37.4057 114.367 37.1962C115.126 36.9867 121.538 35.7716 122.382 35.9392C123.268 36.1487 124.28 37.3638 123.985 38.4533C123.648 39.7732 117.235 43.8377 113.354 43.5653C113.354 43.5653 111.308 43.691 109.599 40.9465C107.954 38.3276 110.169 33.4041 110.169 33.4041C110.169 33.4041 109.178 31.0995 109.916 30.2615C109.916 30.2615 110.338 29.9053 111.603 29.8005L113.185 26.5741C113.185 26.5741 111.392 26.6788 110.338 25.3799C109.367 24.1228 109.283 23.5781 110.042 23.2429C110.844 22.8239 118.269 21.504 123.373 21.6716C123.373 21.6716 125.166 21.4621 126.748 24.5418C126.748 24.5418 127.466 25.7989 126.2 26.0922H126.179ZM106.942 38.4952C106.309 40.0246 104.558 41.6378 102.449 40.6531C100.297 39.6475 96.9013 32.7756 96.9013 32.7756C96.9013 32.7756 95.6357 30.2196 95.3826 30.3034C95.3826 30.3034 95.1084 29.8005 94.9607 32.608C94.7498 35.3944 95.0029 40.8207 93.8428 41.6797C92.7881 42.5178 91.5225 42.1616 90.8053 41.1769C90.2147 40.1922 89.9616 37.8248 90.2991 33.6974C90.6787 29.5701 91.6279 25.1704 92.8303 23.8086C94.0959 22.4258 95.1084 23.4314 95.488 23.8086C95.488 23.8086 97.1122 25.2751 99.8544 29.612L100.318 30.4081C100.318 30.4081 102.807 34.5355 103.061 34.5145C103.061 34.5145 103.271 34.724 103.44 34.5564C103.693 34.4936 103.609 33.1527 103.609 33.1527C103.609 33.1527 103.145 28.6901 100.825 21.1478C100.825 21.1478 100.487 20.184 100.719 19.2622C100.93 18.4242 101.837 18.8432 101.837 18.8432C101.837 18.8432 105.339 20.5193 107.047 26.176C108.735 31.8328 107.596 36.9658 106.963 38.4952H106.942ZM89.7717 23.9762C89.4342 24.5628 89.2866 25.3799 87.8311 25.6103C87.8311 25.6103 73.6986 26.595 73.0025 27.5797C73.0025 27.5797 72.5384 28.1664 73.2978 28.313C74.0994 28.4806 77.3055 28.8996 78.8243 28.9835C80.4696 28.9835 85.996 29.0254 88.021 31.4976C88.021 31.4976 89.1811 32.6708 89.1389 35.3316C89.0967 38.0552 88.6116 39.019 87.5358 40.0037C86.4179 40.9255 76.8415 45.1995 70.6611 38.6628C70.6611 38.6628 67.8346 35.5202 71.6525 33.1317C71.6525 33.1317 74.3947 31.4557 81.4188 33.4041C81.4188 33.4041 83.5281 34.1583 83.4437 34.9335C83.3172 35.7716 81.693 36.6096 79.3305 36.5677C77.0524 36.5049 75.365 35.4154 75.7024 35.604C76.0188 35.7087 73.2345 34.2631 72.3697 35.2478C71.526 36.1696 71.7369 36.7144 72.5806 37.28C74.69 38.4952 82.9797 38.0552 85.4476 35.3106C85.4476 35.3106 86.439 34.2002 84.9414 33.2994C83.4648 32.4613 79.1618 31.9375 77.4954 31.8747C75.9134 31.7909 69.9861 31.8747 69.1002 30.3453C69.1002 30.3453 68.2565 29.2558 69.1846 26.2808C70.1549 23.1381 77.0524 21.923 80.0477 21.6716C80.0477 21.6716 88.2741 21.3363 89.8139 23.0124C89.8139 23.0124 90.0248 23.3895 89.7717 23.9552V23.9762ZM66.4425 42.3921C65.4511 43.1254 63.3417 42.8111 62.73 41.973C62.1394 41.2398 61.9285 38.3485 62.0339 33.8022C62.1816 29.1511 62.2449 23.4524 63.2995 22.5306C64.3542 21.6297 64.987 22.4258 65.4089 23.0334C65.8307 23.6619 66.3792 24.3533 66.4636 25.7989C66.5901 27.2655 66.9487 34.8078 66.9487 34.8078C66.9487 34.8078 67.4128 41.6797 66.4636 42.3921H66.4425ZM68.5518 17.8794C65.6409 18.8641 63.6581 18.5499 61.9707 17.8166C61.2324 19.1365 60.7894 19.5346 60.241 19.6184C59.3973 19.7022 58.659 18.3613 58.5535 17.9423C58.3848 17.628 57.984 17.0623 58.4692 15.7843C56.8239 14.3178 56.6973 12.3484 56.9926 11.0285C57.3723 9.4781 60.1566 3.65373 68.594 2.96235C68.594 2.96235 72.7283 2.66904 73.4455 4.84794H73.572C73.572 4.84794 77.5798 4.84794 77.4954 8.4096C77.4954 11.9713 73.0658 16.4129 68.5518 17.9423V17.8794ZM72.3064 7.73917C69.6486 8.15819 65.5565 11.678 63.5948 14.5901C66.6112 15.1349 71.8845 14.9254 74.247 10.1904C74.247 10.1904 75.365 7.2154 72.3064 7.73917ZM60.6418 10.0438C59.798 11.4056 59.7559 12.2227 60.1566 12.7674C61.148 11.3008 62.8988 8.99623 65.5354 7.19445C63.5105 7.40395 61.8019 8.24199 60.6418 10.0438ZM132.507 42.2454C130.566 46.9803 128.921 51.7781 127.972 58.9643C127.972 58.9643 127.761 60.368 126.601 59.9071C125.441 59.4881 123.542 57.6025 123.12 54.9417C122.698 51.4638 124.259 45.5976 127.445 38.8514C126.516 37.3848 125.862 35.2059 126.39 32.147C126.39 32.147 127.234 26.4903 132.929 21.3783C132.929 21.3783 133.604 20.8126 133.983 21.0011C134.448 21.2106 134.258 23.0124 133.878 23.9343C133.54 24.8142 131.009 29.172 131.009 29.172C131.009 29.172 129.427 32.147 129.87 34.4726C132.865 29.9053 139.679 20.645 143.897 23.5781C146.576 25.4637 146.576 31.5395 144.572 35.0592C142.99 37.8457 138.519 43.6072 132.549 42.2664L132.507 42.2454ZM141.324 28.0197C139.763 29.6958 136.979 32.8803 134.785 37.1962C137.105 36.9448 139.362 35.6668 140.058 35.0173C141.176 34.0326 143.75 31.3719 143.349 27.8521C143.349 27.8521 143.096 26.0084 141.324 28.0197ZM46.8256 44.7176C39.3586 46.9803 32.3134 45.9328 28.4744 44.9271C28.3689 46.4775 28.2002 47.127 27.947 47.3784C27.6517 47.7136 25.2049 49.0964 23.8549 47.127C23.2643 46.1842 22.969 44.4872 22.8003 42.9368C14.152 39.0399 10.1442 33.2994 10.0177 33.0898C9.80675 32.8803 7.84506 30.8481 9.80675 28.334C11.6419 26.0713 17.7168 23.7876 23.1589 22.8867C23.3698 18.2775 23.876 14.7158 24.5299 13.1445C25.3104 11.2589 26.3018 12.935 27.1877 14.1921C27.9049 15.1349 28.3478 19.1784 28.39 22.4048C31.9337 22.2372 34.0852 22.4887 38.0297 23.2429C43.2187 24.1228 46.678 26.7626 46.4038 29.7377C46.1506 32.6708 43.4507 33.886 42.396 33.9698C41.3413 34.0536 39.6539 33.2784 39.6539 33.2784C38.4726 32.7337 39.5484 32.2309 40.9195 31.6442C42.4382 30.9109 42.1007 30.1777 42.1007 30.1777C41.5523 28.5016 34.8235 27.3912 28.1369 27.3912C28.1369 31.0576 28.2845 37.1334 28.39 40.6741C33.0727 41.554 36.5742 41.3655 36.5742 41.3655C36.5742 41.3655 53.6599 40.8836 54.145 30.052C54.6724 19.1994 37.0594 8.80767 24.087 5.53932C11.1356 2.16621 3.79513 4.55462 3.16233 4.86889C2.46625 5.2041 3.09905 5.32981 3.09905 5.32981C3.09905 5.32981 3.79513 5.43456 5.06074 5.85358C6.32634 6.2726 5.31386 6.90113 5.31386 6.90113C3.09905 7.65537 0.631128 7.2154 0.14598 6.20975C-0.339168 5.22505 0.46238 4.32416 1.41158 3.00425C2.2975 1.64244 3.30999 1.68434 3.30999 1.68434C19.341 -3.86767 38.9156 6.08404 38.9156 6.08404C57.2247 15.2606 60.3465 26.0503 60.009 30.2405C59.7137 34.3678 58.1106 41.3445 46.8256 44.7386V44.7176ZM11.5997 29.7377C9.78565 30.5757 11.0513 31.9166 11.0513 31.9166C14.4684 35.5411 18.6449 37.8248 22.6526 39.2494C23.1167 32.9641 23.0745 30.7224 23.0745 27.5588C16.873 27.9778 13.2872 28.9834 11.5997 29.7377Z" fill="white"/>
</svg>
