<svg width="258" height="43" viewBox="0 0 258 43" fill="none" xmlns="http://www.w3.org/2000/svg">
<path d="M19.4536 36.2493C13.207 36.2493 8.15027 31.7111 8.15027 23.4855V20.7058C8.15027 12.4802 13.207 7.94195 19.4536 7.94195C24.7483 7.94195 27.7823 10.4947 28.6152 14.2388H37.0629C35.6351 6.63721 29.0911 1.30475 19.6915 1.30475C6.84147 1.30475 0 10.6082 0 22.124C0 33.6966 6.78198 42.8865 19.6915 42.8865C29.1506 42.8865 35.6946 37.5541 37.1819 29.4987H28.8531C28.1393 33.1293 25.2242 36.2493 19.4536 36.2493Z" fill="white"/>
<path d="M56.3803 42.8865C66.7317 42.8865 71.9669 35.5686 71.9669 27.2296C71.9669 18.9472 66.6722 11.5726 56.3803 11.5726C46.0289 11.5726 40.7341 18.8905 40.7341 27.2296C40.7341 35.5686 45.9694 42.8865 56.3803 42.8865ZM64.2331 28.5343C64.2331 33.81 60.7826 36.8166 56.3803 36.8166C51.9185 36.8166 48.468 33.6966 48.468 28.5343V25.9815C48.468 20.7625 51.9185 17.6425 56.3803 17.6425C60.7826 17.6425 64.2331 20.6491 64.2331 25.9815V28.5343Z" fill="white"/>
<path d="M83.4659 8.90633C86.143 8.90633 88.1657 6.92085 88.1657 4.53826C88.1657 2.04222 86.143 0.113458 83.4659 0.113458H82.99C80.3129 0.113458 78.2307 2.04222 78.2307 4.53826C78.2307 6.92085 80.3129 8.90633 82.99 8.90633H83.4659ZM74.4827 18.2665H79.361V42.0924H87.0948V12.3668H74.4827V18.2665Z" fill="white"/>
<path d="M101.278 24.6201C101.278 19.9683 104.55 17.8127 108.001 17.8127C111.332 17.8127 114.426 19.9116 114.426 24.2797V42.0924H122.16V23.4855C122.16 15.9974 117.222 11.5726 110.618 11.5726C106.157 11.5726 102.587 13.4446 100.921 17.1319H100.862V12.3668H93.5445V42.0924H101.278V24.6201Z" fill="white"/>
<path d="M128.358 42.0924H135.676V37.1003H135.735C137.52 40.6741 140.792 42.8865 145.908 42.8865C154.891 42.8865 159.532 35.6253 159.532 27.2296C159.532 18.8905 154.832 11.5726 145.908 11.5726C141.149 11.5726 137.996 13.558 136.152 16.6781H136.092V0H128.358V42.0924ZM151.738 28.591C151.738 33.8668 148.288 36.8734 143.945 36.8734C139.602 36.8734 136.092 33.7533 136.092 28.591V25.9815C136.092 20.8193 139.602 17.6992 143.945 17.6992C148.288 17.6992 151.738 20.7058 151.738 25.9815V28.591Z" fill="white"/>
<path d="M163.916 20.9894H171.531C171.769 18.4934 173.673 16.905 177.361 16.905C181.347 16.905 182.716 18.7203 182.716 20.7058C182.716 22.5778 181.466 23.4855 178.551 23.8826L174.744 24.4499C167.426 25.4142 162.905 28.1372 162.905 33.9235C162.905 39.5396 167.367 42.8865 173.851 42.8865C179.027 42.8865 182.656 40.5607 184.143 36.9868H184.203V37.2705C184.143 40.2203 185.809 42.0924 190.092 42.0924H194.376V36.3628H192.532C191.163 36.3628 190.449 36.0224 190.449 34.3773V22.0673C190.449 14.5224 184.619 11.5726 177.48 11.5726C169.33 11.5726 164.571 15.3734 163.916 20.9894ZM182.894 30.066C182.894 34.3773 179.979 37.3272 175.458 37.3272C172.305 37.3272 170.401 35.8522 170.401 33.5264V33.186C170.401 30.9169 172.483 29.6121 175.934 29.1016L179.206 28.6478C181.05 28.4208 182.299 27.7968 182.894 27.2296V30.066Z" fill="white"/>
<path d="M196.196 33.2427C196.315 39.1992 201.966 43 210.176 43C218.148 43 224.097 39.3694 224.097 33.2427C224.097 27.343 219.159 25.0172 213.567 24.2797L209.046 23.6557C206.369 23.3153 204.763 22.3509 204.763 20.3087C204.763 18.2665 206.666 16.7916 210.117 16.7916C213.686 16.7916 215.59 18.3232 215.649 20.7625H223.443C223.205 15.5435 218.445 11.5158 210.295 11.5158C202.74 11.5158 196.969 14.9763 196.969 20.9894C196.969 26.6623 201.193 29.0449 206.309 29.7256L210.831 30.2929C214.103 30.69 216.304 31.5409 216.304 33.8668C216.304 36.2493 213.984 37.5541 210.414 37.5541C206.726 37.5541 204.168 36.2493 204.108 33.2427H196.196Z" fill="white"/>
<path d="M243.246 42.8865C250.98 42.8865 256.453 38.9723 257.465 33.2995H249.731C249.433 35.285 247.351 37.3839 243.425 37.3839C238.784 37.3839 235.334 34.3206 235.274 29.1016H258V26.3219C258 18.4934 253.003 11.5726 243.008 11.5726C232.776 11.5726 227.541 18.8905 227.541 27.2296C227.541 35.6253 232.716 42.8865 243.246 42.8865ZM243.008 17.0752C247.173 17.0752 250.088 19.628 250.266 24.1662H235.334C235.81 19.6847 238.903 17.0752 243.008 17.0752Z" fill="white"/>
</svg>
