<svg width="156" height="63" viewBox="0 0 156 63" fill="none" xmlns="http://www.w3.org/2000/svg">
<path fill-rule="evenodd" clip-rule="evenodd" d="M0.96875 0H155.03V62.0056H0.96875V0ZM131.343 4.95911V14.4498H122.917V26.2099H131.344V35.7152H122.917V47.6543H131.344V57.0171H113.59V9.83038L106.109 57.0169L95.1608 57.0502C95.1608 57.0502 89.5767 23.6334 89.5659 23.5603V23.5639C90.4686 28.9617 87.0769 34.6042 84.073 36.8261L90.0005 57.0169H89.9894H89.9731L89.9768 57.0279H89.966H80.7824H80.7713L76.2544 39.8009L74.0726 40.1187V57.0169H74.0615H74.0504V57.0279H74.0359L56.2386 57.0169L55.1423 49.0065H47.8438L46.7438 57.0169H28.6158V31.9256L24.3985 57.0169H19.3994L15.122 31.9256V57.0176H5.71875V4.95927H17.6597L21.8514 31.8558L26.1548 4.95896H38.092L38.0883 52.8365L45.2694 4.95203L57.7421 4.95927L64.6836 51.1737L64.7201 4.95927C64.7201 4.95927 74.2001 4.95557 74.2567 4.95927C82.8374 4.95927 86.7366 11.2522 87.8366 13.4196L86.7697 4.95927H96.2933L100.591 36.6654L104.934 4.95911H131.343ZM51.5332 18.4954L48.9515 40.7513H54.2139L51.5332 18.4954ZM74.0721 31.0012C74.8067 31.0012 75.5613 30.8257 76.2849 30.4748C78.4775 29.4114 80.3449 26.7543 80.3449 22.5372C80.3449 14.4755 74.8543 14.249 74.1179 14.2527C74.108 14.2527 74.0991 14.2537 74.091 14.2546C74.0842 14.2554 74.0779 14.2561 74.0721 14.2561V31.0012ZM150.29 57.0097V47.6471H142.296V4.95203H132.971V57.0097H150.29Z" fill="white"/>
</svg>
