<svg width="291" height="43" viewBox="0 0 291 43" fill="none" xmlns="http://www.w3.org/2000/svg">
<path d="M129.413 5.46042V41.6349H140.375V5.46023C140.375 2.4563 137.85 -9.57888e-05 134.86 2.80158e-09C131.804 0.00011176 129.413 2.45728 129.413 5.46042ZM32.0206 1.91144C30.8912 3.0035 30.2273 4.57269 30.2273 6.21077C30.2273 7.91711 30.9248 9.38547 32.0206 10.5112L33.3492 11.8763C35.5741 14.1621 35.7062 14.7079 33.6151 16.8582L32.42 18.0872C31.4239 19.1114 30.8253 20.4756 30.8253 21.9772V41.6348H41.8531V21.9772C41.8531 20.4756 41.2209 19.077 40.2585 18.0872L39.0633 16.858C36.9386 14.6727 37.1034 14.1619 39.3283 11.8761L40.6569 10.511C41.7527 9.38528 42.4513 7.91692 42.4513 6.21059C42.4513 4.50425 41.7863 3.0033 40.6569 1.91125C39.5276 0.819191 38.066 0.135762 36.3387 0.135874C34.6779 0.13597 33.1499 0.819386 32.0206 1.91144ZM94.7435 13.7631C92.7981 13.6894 90.831 14.6445 89.8178 16.449L84.8353 25.322V19.3843C84.8353 16.3812 82.3776 13.924 79.3881 13.924C76.3322 13.924 73.941 16.3812 73.941 19.3843V41.6349H84.9025V32.9671L90.6818 41.6349H99.5179C100.519 41.6349 101.311 40.8154 101.311 39.7233C101.311 39.3818 101.247 39.0054 101.045 38.6995L95.0662 29.6224L99.252 22.0465C100.708 19.4117 99.909 16.0522 97.3252 14.5385C96.5083 14.06 95.6278 13.7967 94.7435 13.7631ZM4.25196 18.2922C1.67786 20.9025 0 24.5025 0 28.4612V41.6346H10.9615V28.7342C10.9615 27.1644 11.3359 25.7854 11.958 24.7762C12.5985 23.7372 13.4192 23.1378 14.4157 23.1378C15.4122 23.1378 16.21 23.7523 16.8743 24.7762C17.5387 25.8 17.8708 27.1644 17.8708 28.7342V41.6344H28.8324V28.461C28.8324 24.5023 27.2047 20.85 24.5804 18.2229C22.0225 15.6622 18.4017 14.0597 14.4157 14.0598C10.4297 14.0599 6.79335 15.7151 4.25196 18.2922ZM57.7972 14.0599C53.8112 14.0599 50.1572 15.6986 47.5662 18.2922C44.9753 20.8859 43.3483 24.5712 43.3815 28.5303C43.4148 32.4889 44.9709 36.1792 47.5662 38.7684C49.5548 40.7522 53.014 42.9997 57.7972 42.9997C61.3182 42.9997 64.6284 41.69 67.1641 39.519C69.0131 37.936 71.6814 34.8096 72.2129 29.8954H61.1851C61.0522 31.1239 60.7266 32.2191 60.2548 33.1029C59.5971 34.335 58.7937 35.0144 57.7972 35.0144C56.8007 35.0144 56.0039 34.3315 55.3396 33.1029C54.6752 31.8743 54.3431 30.3049 54.3431 28.5303C54.3431 26.7557 54.7298 25.1107 55.3396 23.9566C55.9921 22.7217 56.8007 22.0462 57.7972 22.0462C58.7937 22.0462 59.5971 22.7245 60.2548 23.9566C60.7266 24.8404 61.0523 25.9367 61.1851 27.1652H72.1466C71.8145 23.7525 70.2853 20.6147 67.962 18.2922C65.3692 15.7004 61.7168 14.0599 57.7972 14.0599ZM266.332 18.2244C263.725 20.8015 262.147 24.4355 262.147 28.4625V41.6348H273.042V28.6664C273.042 27.0965 273.417 25.7175 274.038 24.7083C274.679 23.6693 275.5 23.07 276.496 23.07C277.493 23.07 278.29 23.6845 278.955 24.7083C279.619 25.7321 279.951 27.0965 279.951 28.6664V41.6346H290.979V28.3932C290.979 24.4344 289.368 20.7653 286.727 18.1551C284.12 15.5779 280.483 13.9918 276.563 13.9919C272.577 13.992 268.973 15.6141 266.332 18.2244ZM114.2 13.9919C110.214 13.9919 106.61 15.6129 103.969 18.2232C101.361 20.8002 99.7166 24.5025 99.7166 28.4613C99.7166 32.42 101.327 36.0897 103.969 38.6993C106.509 41.2088 110.08 42.9317 114.266 42.9317C118.518 42.9317 122.213 41.1229 124.497 38.6313C127.597 35.2489 127.685 31.4646 127.685 31.4646H117.92C117.92 31.4646 116.591 34.8773 114.266 34.8773C113.269 34.8773 112.483 34.1899 111.808 32.9668C111.353 32.1421 111.077 31.1235 110.878 30.0315H127.885C127.885 30.0315 129.111 23.0401 124.43 18.3603C121.67 15.6001 118.186 13.9919 114.2 13.9919ZM117.321 25.8004L111.01 25.8683C111.21 25.0492 111.468 24.2947 111.741 23.6835C112.199 22.6566 113.203 21.7731 114.2 21.773C115.196 21.7729 116.009 22.4463 116.657 23.6835C116.939 24.2215 117.189 25.1179 117.321 25.8004ZM216.64 13.992C212.654 13.992 209.067 15.6296 206.476 18.2233C203.885 20.817 202.224 24.5027 202.224 28.4614C202.224 32.4201 203.885 36.1063 206.476 38.6994C209 41.2253 212.588 42.9318 216.773 42.9318C221.091 42.9318 224.719 41.1231 227.003 38.6314C230.104 35.249 230.192 31.4648 230.192 31.4648H220.427C220.427 31.4648 219.098 34.8774 216.773 34.8774C215.777 34.8774 214.989 34.19 214.315 32.967C213.86 32.1423 213.583 31.1237 213.384 30.0316H230.392C230.392 30.0316 231.617 23.0403 226.937 18.3604C224.176 15.6003 220.692 13.992 216.64 13.992ZM219.895 25.8004L213.518 25.8682C213.717 25.0492 213.955 24.2854 214.248 23.6835C214.753 22.6464 215.709 21.773 216.706 21.773C217.702 21.7729 218.481 22.4654 219.165 23.6835C219.477 24.2408 219.762 25.1178 219.895 25.8004ZM156.251 14.0602C148.279 14.0602 141.836 20.5449 141.836 28.5307C141.836 36.5163 148.279 43 156.251 43C164.223 43 170.668 36.5163 170.668 28.5307C170.668 20.5449 164.223 14.0602 156.251 14.0602ZM156.251 22.0464C158.178 22.0464 159.707 24.9813 159.707 28.5306C159.707 32.0797 158.178 35.0146 156.251 35.0146C154.325 35.0146 152.797 32.0797 152.797 28.5306C152.797 24.9131 154.325 22.0464 156.251 22.0464ZM189.934 5.46039V14.4014C188.804 14.1283 187.608 13.992 186.479 13.992C182.493 13.992 178.89 15.6129 176.249 18.2233C173.641 20.8004 172.063 24.5026 172.063 28.4614C172.063 32.4201 173.704 36.1261 176.249 38.6994C177.889 40.3579 181.496 42.9318 186.479 42.9318C191.461 42.9318 195.069 40.3579 196.71 38.6994C199.255 36.1261 200.829 32.4883 200.829 28.4614V5.46024C200.829 2.45709 198.37 -3.57125e-05 195.381 1.21833e-05C192.325 6.00791e-05 189.934 2.45719 189.934 5.46039ZM186.412 22.0464C188.339 22.0464 189.834 24.9815 189.868 28.5306C189.901 32.0802 188.339 35.0146 186.412 35.0146C184.486 35.0146 182.958 32.0797 182.958 28.5306C182.958 24.9131 184.552 22.0464 186.412 22.0464ZM246.336 14.0602C238.364 14.0602 231.919 20.5449 231.919 28.5307C231.919 36.5163 238.364 43 246.336 43C254.308 43 260.752 36.5163 260.752 28.5307C260.752 20.4767 254.308 14.0602 246.336 14.0602ZM246.336 22.0464C248.263 22.0464 249.79 24.9813 249.79 28.5306C249.79 32.0797 248.263 35.0146 246.336 35.0146C244.41 35.0146 242.881 32.0797 242.881 28.5306C242.881 24.9131 244.41 22.0464 246.336 22.0464Z" fill="white"/>
</svg>
